<?xml version="1.0" encoding="iso-8859-1"?>
<!-- Generator: Adobe Illustrator 16.0.0, SVG Export Plug-In . SVG Version: 6.00 Build 0)  -->
<!DOCTYPE svg PUBLIC "-//W3C//DTD SVG 1.1//EN" "http://www.w3.org/Graphics/SVG/1.1/DTD/svg11.dtd">
<svg version="1.1" id="Capa_1" xmlns="http://www.w3.org/2000/svg" xmlns:xlink="http://www.w3.org/1999/xlink" x="0px" y="0px"
	 width="533.521px" height="533.521px" viewBox="0 0 533.521 533.521" style="enable-background:new 0 0 533.521 533.521;"
	 xml:space="preserve">
<g>
	<g>
		<path d="M269.18,15.549c-89.208,0.66-128.854,8.74-138.685,11.131v457.174c14,2.247,75.065,11.513,136.304,12.201l5.986,0.038
			c59.345,0,118.231-9.782,131.829-12.183l-0.775-457.393c-8.605-2.582-43.051-10.997-125.25-10.997L269.18,15.549z
			 M189.859,466.564c0,1.319-1.071,2.391-2.391,2.391h-12.354c-1.32,0-2.391-1.071-2.391-2.391c0-1.32,1.071-2.391,2.391-2.391
			h9.964v-3.586h-10.777v0.573c0,0.431-0.229,0.822-0.593,1.033c-0.373,0.2-0.823,0.2-1.195,0l-5.164-2.983
			c-0.363-0.211-0.593-0.603-0.593-1.033s0.229-0.822,0.593-1.033l5.164-2.983c0.373-0.2,0.822-0.2,1.195,0
			c0.363,0.211,0.593,0.603,0.593,1.033v0.603h13.167c1.32,0,2.391,1.071,2.391,2.391V466.564z M250.982,460.502l-1.358-0.335v4.8
			c0,1.32-1.071,2.391-2.391,2.391h-19.918c-1.32,0-2.391-1.07-2.391-2.391v-3.452l-0.402,0.144
			c-0.249,0.086-0.516,0.134-0.793,0.134c-1.014,0-1.913-0.631-2.248-1.587c-0.439-1.243,0.21-2.61,1.454-3.061l13.55-4.781
			c0.277-0.086,0.535-0.134,0.793-0.134l0.593,0.077l14.334,3.586c0.622,0.152,1.147,0.545,1.473,1.09
			c0.334,0.545,0.42,1.186,0.268,1.798C253.622,460.081,252.235,460.846,250.982,460.502z M309.792,465.369h-19.919
			c-0.659,0-1.195-0.536-1.195-1.195c0-0.66,0.536-1.195,1.195-1.195h19.919c0.66,0,1.195,0.535,1.195,1.195
			C310.987,464.833,310.452,465.369,309.792,465.369z M309.792,460.588h-19.919c-0.659,0-1.195-0.536-1.195-1.195
			c0-0.66,0.536-1.195,1.195-1.195h19.919c0.66,0,1.195,0.535,1.195,1.195C310.987,460.052,310.452,460.588,309.792,460.588z
			 M309.792,455.807h-19.919c-0.659,0-1.195-0.536-1.195-1.195c0-0.66,0.536-1.195,1.195-1.195h19.919
			c0.66,0,1.195,0.535,1.195,1.195C310.987,455.271,310.452,455.807,309.792,455.807z M370.552,464.174h-21.516v-7.172h21.516
			V464.174z M374.731,460.396c0,0.659-0.537,1.195-1.195,1.195c-0.66,0-1.195-0.536-1.195-1.195v-5.585h-19.719
			c-0.66,0-1.195-0.535-1.195-1.195c0-0.659,0.535-1.195,1.195-1.195h20.924c0.658,0,1.195,0.536,1.195,1.195v6.78H374.731z
			 M390.681,413.56H144.447V84.447h246.234V413.56z M307.009,34.282c0,2.639-2.143,4.781-4.781,4.781h-66.144
			c-2.639,0-4.781-2.142-4.781-4.781s2.142-4.781,4.781-4.781h66.144C304.876,29.5,307.009,31.643,307.009,34.282z"/>
		<path d="M381.511,0h-229.5c-21.124,0-38.25,17.126-38.25,38.25v437.484c0,21.124,7.392,40.631,28.314,43.576l64.595,11.542
			c73.239,6.244,91.618,0.02,126.407-3.327l58.369-8.215c20.922-2.945,28.314-22.452,28.314-43.576V38.25
			C419.761,17.126,402.634,0,381.511,0z M411.001,23.906l0.795,462.987c0,1.731-1.215,3.214-2.918,3.529
			c-0.668,0.134-68.064,12.842-136.094,12.842l-6.071-0.038c-69.998-0.784-139.718-12.68-140.425-12.804
			c-1.722-0.287-2.974-1.788-2.974-3.529V23.916c0-1.568,1.023-2.964,2.524-3.423c1.482-0.459,37.581-11.332,143.274-12.116
			l9.467-0.038c98.408,0,128.912,11.743,130.156,12.24C410.112,21.133,411.001,22.453,411.001,23.906z"/>
		<polygon points="229.706,459.822 229.706,462.576 244.843,462.576 244.843,458.972 237.394,457.116 		"/>
	</g>
</g>
<g>
</g>
<g>
</g>
<g>
</g>
<g>
</g>
<g>
</g>
<g>
</g>
<g>
</g>
<g>
</g>
<g>
</g>
<g>
</g>
<g>
</g>
<g>
</g>
<g>
</g>
<g>
</g>
<g>
</g>
</svg>
